<?xml version="1.0" standalone="no"?>
<!DOCTYPE svg PUBLIC "-//W3C//DTD SVG 20010904//EN"
 "http://www.w3.org/TR/2001/REC-SVG-20010904/DTD/svg10.dtd">
<svg version="1.0" xmlns="http://www.w3.org/2000/svg"
 width="225.000000pt" height="225.000000pt" viewBox="0 0 225.000000 225.000000"
 preserveAspectRatio="xMidYMid meet">
<metadata>
Created by potrace 1.15, written by Peter Selinger 2001-2017
</metadata>
<g transform="translate(0.000000,225.000000) scale(0.100000,-0.100000)"
fill="#000000" stroke="none">
<path d="M949 2045 c-146 -27 -283 -88 -410 -182 -34 -25 -64 -41 -68 -36 -45
54 -64 91 -70 136 l-7 52 -20 -33 c-10 -19 -27 -43 -38 -55 -31 -37 -57 -108
-69 -192 -9 -67 -18 -90 -52 -141 -38 -55 -93 -172 -110 -234 -6 -24 -5 -23
15 5 14 18 19 22 15 10 -15 -46 -35 -135 -45 -200 -12 -90 -11 -120 3 -75 10
33 11 29 18 -60 8 -110 20 -167 55 -265 125 -349 451 -615 826 -675 99 -16
341 -8 423 14 98 26 199 82 253 141 43 45 47 54 33 64 -13 9 -11 9 7 1 18 -9
30 -7 55 7 18 11 32 26 32 35 0 24 12 33 27 20 10 -7 21 -4 43 15 20 16 23 21
8 14 -12 -6 -25 -16 -28 -22 -4 -6 -11 -7 -18 -1 -7 6 -23 9 -37 7 -34 -3 -34
-3 -20 -20 7 -8 11 -15 9 -15 -2 -1 -31 -3 -63 -5 -33 -3 -62 -8 -65 -13 -21
-28 -106 -41 -142 -21 -11 5 -38 11 -60 11 -22 0 -57 8 -77 18 -20 10 -54 20
-74 24 -21 4 -44 13 -52 21 -8 8 -18 15 -22 15 -3 0 -36 15 -73 32 -63 31 -95
54 -148 105 -13 13 -29 23 -36 24 -7 0 2 7 18 15 l30 15 -33 -5 c-27 -5 -39 0
-72 31 -31 27 -38 39 -29 49 9 11 19 9 57 -10 75 -37 144 -49 253 -44 92 5
106 8 183 46 203 101 303 315 255 544 -16 76 -62 161 -106 197 -91 74 -172
201 -203 314 -7 26 -16 49 -19 51 -13 9 -11 -85 4 -120 17 -41 20 -84 6 -84
-14 0 -23 37 -16 63 5 16 4 18 -4 8 -13 -21 -33 -2 -55 51 -10 24 -22 51 -27
60 -15 29 -11 178 4 178 7 0 19 16 26 36 7 19 22 39 34 44 20 8 19 9 -7 9 -35
1 -30 10 7 13 33 3 36 15 5 17 -213 9 -260 9 -329 -4z m71 -175 c0 -5 -6 -10
-13 -10 -6 0 -38 -27 -69 -59 -47 -50 -60 -72 -78 -131 -26 -87 -27 -184 -4
-248 10 -26 21 -52 25 -57 11 -15 4 -118 -9 -123 -6 -2 -8 -10 -5 -19 5 -12 0
-11 -23 5 -45 32 -140 35 -229 7 -17 -5 -21 -2 -21 17 0 13 5 26 10 30 7 5 7
8 -1 8 -9 0 -13 18 -13 58 0 100 20 276 35 306 8 16 15 43 15 61 0 33 30 71
45 58 5 -5 3 0 -4 9 -12 16 -10 16 20 8 28 -8 37 -5 79 25 26 19 54 35 61 35
8 1 25 7 39 15 28 16 140 20 140 5z m-112 -262 c20 -9 66 -19 102 -22 36 -3
78 -10 94 -16 25 -9 28 -14 22 -43 -8 -44 -61 -90 -132 -116 -32 -12 -69 -29
-81 -36 -21 -14 -22 -13 -36 33 -16 50 -31 227 -16 182 7 -19 8 -14 5 20 -2
25 -2 38 0 30 3 -8 21 -23 42 -32z m-160 -518 c-2 -5 1 -10 6 -9 5 0 12 -3 15
-8 3 -5 30 -28 58 -50 69 -54 110 -61 207 -34 86 24 142 26 183 9 43 -18 93
-69 93 -94 0 -25 -28 -39 -58 -30 -10 4 -53 -11 -101 -34 -45 -22 -86 -38 -89
-36 -4 2 -27 5 -52 7 -25 1 -49 6 -55 9 -5 4 -43 12 -82 19 -40 7 -73 17 -73
22 0 5 -10 9 -22 9 -26 1 -47 15 -70 49 -15 21 -15 27 -2 52 7 15 14 39 14 54
0 14 5 25 10 25 6 0 10 7 10 16 0 9 -5 12 -12 8 -9 -5 -9 -2 1 9 15 19 22 22
19 7z"/>
</g>
</svg>
