<?xml version="1.0" standalone="no"?>
<!DOCTYPE svg PUBLIC "-//W3C//DTD SVG 20010904//EN"
 "http://www.w3.org/TR/2001/REC-SVG-20010904/DTD/svg10.dtd">
<svg version="1.0" xmlns="http://www.w3.org/2000/svg"
 width="225.000000pt" height="225.000000pt" viewBox="0 0 225.000000 225.000000"
 preserveAspectRatio="xMidYMid meet">
<metadata>
Created by potrace 1.15, written by Peter Selinger 2001-2017
</metadata>
<g transform="translate(0.000000,225.000000) scale(0.100000,-0.100000)"
fill="#000000" stroke="none">
<path d="M1020 2113 c-91 -33 -190 -163 -190 -251 l0 -24 -30 25 c-50 43 -110
60 -192 55 -86 -5 -137 -26 -193 -83 -54 -53 -78 -107 -83 -182 -6 -86 3 -124
43 -183 33 -49 33 -50 11 -50 -88 0 -211 -93 -245 -186 -20 -53 -21 -75 -21
-557 0 -548 -2 -531 57 -556 21 -8 275 -11 966 -9 l939 3 24 28 24 28 0 504
c0 484 -1 506 -21 559 -34 93 -157 186 -245 186 -22 0 -22 1 11 50 52 77 60
199 19 285 -24 51 -88 115 -139 139 -86 41 -208 33 -285 -19 -49 -33 -50 -33
-50 -11 0 88 -93 211 -186 245 -65 25 -150 26 -214 4z m150 -123 c44 -12 94
-63 109 -112 13 -41 3 -98 -23 -133 -12 -16 -15 -54 -16 -180 l0 -160 115 115
c74 74 115 122 115 136 0 26 36 81 71 107 70 52 184 20 227 -63 28 -53 25
-117 -5 -159 -26 -35 -81 -71 -107 -71 -14 0 -62 -41 -136 -115 l-115 -115
160 0 c126 1 164 4 180 16 60 45 143 37 203 -19 31 -30 57 -91 46 -109 -7 -11
-1731 -11 -1738 0 -11 18 15 79 46 109 60 56 143 64 203 19 16 -12 54 -15 180
-16 l160 0 -115 115 c-74 74 -122 115 -136 115 -26 0 -81 36 -107 71 -52 70
-20 184 63 227 53 28 117 25 159 -5 35 -26 71 -81 71 -107 0 -14 41 -62 115
-136 l115 -115 0 160 c-1 126 -4 164 -16 180 -45 60 -37 143 19 203 44 46 94
60 157 42z m-476 -954 c76 -32 145 -119 160 -203 l5 -33 -72 0 -72 0 -17 40
c-29 70 -126 90 -176 37 -36 -38 -46 -79 -28 -120 19 -46 51 -66 124 -77 103
-14 183 -72 220 -159 19 -45 20 -134 3 -185 -18 -53 -86 -125 -140 -149 -94
-42 -222 -16 -293 60 -33 35 -67 109 -68 146 0 27 0 27 70 27 69 0 70 0 83
-32 19 -44 47 -68 89 -74 73 -12 138 55 124 128 -10 56 -51 86 -129 97 -146
21 -237 120 -237 258 1 145 111 253 258 253 34 0 78 -6 96 -14z m320 -3 c3
-10 26 -117 51 -238 25 -121 48 -231 51 -245 l7 -25 7 25 c4 14 29 132 56 263
l49 237 72 0 c71 0 73 -1 68 -22 -10 -46 -175 -847 -175 -852 0 -3 -33 -6 -74
-6 -62 0 -75 3 -80 18 -7 25 -176 842 -176 853 0 5 31 9 69 9 58 0 71 -3 75
-17z m742 -7 c63 -29 120 -95 139 -160 8 -27 15 -53 15 -58 0 -4 -33 -8 -73
-8 l-73 0 -12 34 c-21 58 -88 86 -146 62 -64 -27 -66 -35 -66 -289 l0 -229 35
-35 c33 -33 39 -35 81 -30 32 3 55 13 73 31 23 23 26 36 29 106 l4 79 -53 3
-54 3 -3 73 -3 72 131 0 130 0 0 -132 c0 -167 -5 -196 -44 -261 -80 -134 -265
-164 -384 -61 -83 70 -87 86 -90 359 -4 256 0 289 45 356 27 41 85 85 129 99
57 17 137 11 190 -14z"/>
</g>
</svg>
