<?xml version="1.0" standalone="no"?>
<!DOCTYPE svg PUBLIC "-//W3C//DTD SVG 20010904//EN"
 "http://www.w3.org/TR/2001/REC-SVG-20010904/DTD/svg10.dtd">
<svg version="1.0" xmlns="http://www.w3.org/2000/svg"
 width="275.000000pt" height="183.000000pt" viewBox="0 0 275.000000 183.000000"
 preserveAspectRatio="xMidYMid meet">
<metadata>
Created by potrace 1.15, written by Peter Selinger 2001-2017
</metadata>
<g transform="translate(0.000000,183.000000) scale(0.100000,-0.100000)"
fill="#000000" stroke="none">
<path d="M488 1823 c-18 -5 -31 -30 -22 -44 3 -5 10 -6 16 -3 7 4 8 2 4 -4 -4
-6 -14 -8 -23 -5 -13 5 -15 2 -10 -11 4 -10 7 -22 7 -27 0 -5 26 -10 58 -11
l57 -2 -52 -3 c-37 -3 -53 -8 -53 -18 0 -10 15 -14 63 -13 71 1 82 4 67 23 -8
9 -6 14 5 19 8 3 15 14 15 25 0 13 -5 19 -14 15 -8 -3 -17 0 -22 7 -4 8 -3 10
5 5 6 -4 14 0 18 10 13 33 -54 54 -119 37z"/>
<path d="M2178 1703 c-16 -3 -28 -11 -28 -19 0 -14 -10 -18 -41 -15 -9 1 -21
-5 -28 -13 -17 -20 5 -32 27 -14 16 12 16 11 2 -6 -13 -16 -12 -20 8 -36 18
-15 28 -17 58 -8 24 6 50 6 75 0 30 -8 43 -6 61 6 22 15 22 15 8 -2 -13 -16
-12 -20 11 -40 14 -13 31 -31 37 -42 6 -10 12 -14 12 -8 0 19 -48 109 -74 137
-14 15 -26 35 -26 43 0 8 -10 14 -24 14 -13 0 -30 2 -38 3 -7 2 -25 2 -40 0z"/>
<path d="M278 1694 c-5 -5 -25 -10 -49 -13 -3 -1 -15 -9 -26 -18 -12 -10 -37
-31 -58 -47 -68 -54 -130 -166 -91 -166 21 0 34 22 32 57 0 17 1 30 3 28 1 -2
14 0 27 5 20 8 24 6 24 -8 0 -9 5 -24 10 -32 9 -13 11 -13 20 0 15 22 12 67
-4 73 -8 3 -17 1 -19 -6 -3 -7 -4 -2 -4 10 1 17 4 19 14 11 7 -5 19 -8 26 -5
9 3 12 -4 9 -30 -4 -30 -2 -34 14 -31 25 4 30 45 9 68 -9 10 -15 25 -12 32 3
8 6 6 6 -6 1 -13 6 -17 21 -13 11 3 17 1 14 -5 -10 -16 6 -58 22 -58 14 0 15
7 11 37 -4 21 -11 39 -17 41 -5 2 -10 8 -10 13 0 5 9 4 20 -3 13 -9 20 -24 20
-45 0 -23 5 -33 15 -33 19 0 21 68 2 76 -8 3 -11 17 -9 39 4 32 -5 44 -20 29z"/>
<path d="M500 1671 c-33 -6 -34 -7 -15 -19 11 -7 13 -11 5 -9 -8 2 -28 -9 -43
-25 -23 -24 -26 -32 -16 -44 7 -8 19 -12 27 -9 12 4 12 2 3 -8 -8 -11 -6 -22
13 -49 23 -34 23 -35 5 -59 -23 -30 -24 -49 -1 -88 30 -53 90 -54 117 -1 20
39 19 66 -5 90 -15 15 -18 24 -10 33 6 6 18 21 26 32 14 18 14 17 0 -10 -13
-27 -12 -33 2 -57 16 -28 62 -40 62 -17 0 28 -25 90 -41 105 -18 16 -17 17 4
35 l22 19 -28 25 c-15 13 -27 27 -26 30 4 23 -44 35 -101 26z"/>
<path d="M720 1451 c0 -14 -5 -18 -20 -14 -14 4 -20 0 -20 -11 0 -11 -9 -16
-30 -16 -20 0 -30 -5 -30 -15 0 -9 -8 -27 -17 -42 -16 -24 -16 -26 3 -40 45
-34 54 -35 64 -8 6 15 10 43 10 62 0 20 3 33 7 29 4 -4 6 -22 5 -42 -3 -41 6
-63 19 -43 7 11 9 11 9 -2 0 -16 19 -29 41 -29 16 0 10 39 -8 49 -17 10 -17
10 0 11 12 0 17 8 17 30 0 23 -4 30 -20 30 -16 0 -20 -7 -21 -37 -1 -37 -2
-37 -8 -8 -11 46 -3 63 25 57 25 -4 31 9 18 42 -9 23 -44 20 -44 -3z"/>
<path d="M358 1403 c-2 -52 -2 -63 5 -100 4 -25 2 -30 -9 -26 -22 8 -45 -17
-38 -41 9 -30 11 -31 31 -15 16 13 17 12 5 -3 -18 -22 -6 -58 18 -58 12 0 17
-5 14 -14 -3 -7 7 -23 22 -35 33 -26 40 -26 46 -3 5 19 -23 62 -41 62 -6 0 -8
6 -5 13 2 7 -5 22 -16 34 -11 12 -20 26 -20 30 1 4 12 -5 25 -22 17 -21 28
-26 35 -19 13 13 2 44 -16 44 -7 0 -11 6 -8 13 3 8 -2 19 -10 26 -8 7 -13 18
-10 25 3 7 0 24 -5 39 -6 14 -6 29 -2 32 5 2 12 -14 15 -38 10 -67 18 -74 55
-48 34 25 39 42 16 61 -8 7 -15 21 -15 32 0 17 -5 20 -30 16 -24 -4 -30 -1
-30 14 0 10 -7 18 -15 18 -10 0 -16 -12 -17 -37z"/>
<path d="M457 1290 l-28 -25 25 -38 c14 -21 26 -42 26 -48 0 -5 7 -12 16 -16
15 -5 15 -7 0 -15 -14 -8 -15 -13 -5 -24 17 -20 39 -17 39 6 0 11 4 20 9 20 5
0 7 -9 4 -20 -4 -13 0 -20 10 -20 21 0 44 30 30 38 -7 5 2 26 25 60 l35 53
-26 27 c-37 37 -120 38 -160 2z"/>
<path d="M671 1282 c-8 -15 -7 -23 3 -31 7 -6 16 -7 21 -3 9 8 6 1 -15 -43 -8
-16 -25 -38 -37 -48 -39 -31 -26 -81 13 -52 23 17 34 19 34 5 0 -5 -7 -10 -15
-10 -9 0 -12 -6 -8 -16 5 -13 7 -13 14 -2 6 9 9 4 9 -14 0 -31 25 -39 34 -10
3 9 4 4 2 -11 -2 -18 2 -31 10 -34 8 -3 14 -11 14 -19 0 -23 27 -16 34 9 9 35
7 91 -5 128 -18 53 -32 61 -26 14 6 -36 5 -37 -4 -12 -14 36 -32 24 -25 -16
l6 -32 -11 28 c-6 15 -15 25 -20 21 -5 -3 -9 2 -9 11 0 9 4 13 10 10 5 -3 15
5 21 19 10 20 9 29 -2 42 -13 16 -12 16 8 6 22 -12 33 -1 33 33 0 20 -40 30
-52 14 -7 -11 -8 -9 -6 5 4 26 -18 32 -31 8z"/>
<path d="M2177 790 c-35 -28 -50 -76 -37 -120 18 -61 13 -77 -22 -84 -23 -5
-37 -1 -52 13 -51 45 -96 52 -161 22 -70 -32 -185 -161 -185 -208 0 -23 23
-32 35 -13 3 6 14 10 24 10 10 0 24 7 31 15 7 9 15 13 18 10 3 -3 12 1 21 8 9
8 43 22 76 31 33 10 70 22 82 28 31 15 37 6 15 -23 -11 -13 -22 -37 -27 -54
-13 -51 -14 -196 -1 -238 10 -35 9 -46 -7 -78 -10 -20 -20 -53 -24 -73 l-6
-36 52 0 c39 0 56 5 72 21 l21 21 29 -21 c39 -29 129 -29 168 0 l29 21 21 -21
c16 -16 33 -21 72 -21 l51 0 -7 38 c-3 20 -14 53 -25 73 -13 27 -15 40 -7 54
5 10 12 61 13 113 4 94 -8 153 -38 201 -15 25 -6 36 19 22 10 -5 45 -18 78
-27 33 -10 63 -22 66 -27 3 -4 12 -9 20 -11 8 -1 36 -13 62 -26 34 -16 51 -20
59 -12 26 26 -101 180 -180 221 -67 34 -102 28 -183 -30 -9 -7 -27 -9 -42 -5
-30 7 -34 27 -16 88 11 44 -8 98 -45 123 -27 20 -38 19 -69 -5z"/>
<path d="M496 759 c-31 -25 -45 -72 -34 -119 14 -65 11 -77 -24 -84 -23 -5
-37 -1 -52 13 -51 46 -103 53 -164 22 -72 -37 -182 -162 -182 -208 0 -23 23
-32 35 -13 3 6 14 10 24 10 10 0 24 7 31 15 7 9 15 13 18 10 3 -3 12 1 21 8 9
8 43 22 76 31 33 9 68 21 77 27 32 17 41 10 23 -17 -30 -46 -44 -115 -41 -204
1 -47 8 -95 15 -108 10 -19 10 -27 -2 -46 -8 -12 -20 -39 -25 -59 l-10 -36
254 0 254 0 -6 27 c-4 15 -14 41 -24 58 -13 23 -15 36 -7 49 5 10 12 62 13
114 4 88 -5 143 -27 181 -25 42 -23 64 4 42 7 -6 32 -14 55 -18 23 -4 45 -11
48 -15 3 -5 14 -9 24 -9 10 0 20 -5 22 -11 2 -5 10 -11 18 -13 8 -2 37 -13 64
-25 30 -13 53 -18 58 -13 26 26 -101 181 -180 221 -67 34 -102 28 -183 -30 -9
-7 -27 -9 -42 -5 -30 7 -34 27 -17 87 12 42 1 81 -32 117 -27 27 -48 28 -82 1z
m128 -285 c44 -23 66 -44 86 -84 43 -87 31 -170 -35 -235 -92 -93 -227 -82
-304 25 -59 82 -49 182 24 256 64 63 150 77 229 38z"/>
<path d="M1329 474 c-29 -30 -34 -41 -31 -77 8 -118 9 -110 -22 -118 -24 -7
-35 -3 -62 20 -73 65 -154 42 -258 -71 -101 -108 -108 -163 -15 -119 23 12 49
21 56 21 8 0 16 7 20 16 3 8 11 13 18 10 7 -2 22 2 33 9 10 8 22 12 25 8 4 -3
13 -1 21 6 8 6 18 11 22 9 5 -1 19 2 32 6 32 11 36 4 14 -25 -23 -32 -40 -85
-41 -133 -1 -49 10 -40 20 16 12 73 18 90 34 108 24 27 19 60 -9 60 -14 0 -28
-5 -31 -10 -4 -6 -11 -8 -16 -4 -5 3 -17 0 -25 -7 -8 -6 -17 -9 -21 -6 -3 4
-15 0 -25 -8 -11 -7 -26 -11 -33 -9 -6 3 -18 -2 -25 -11 -7 -8 -21 -15 -31
-15 -11 0 -19 -4 -19 -9 0 -9 -60 -34 -67 -27 -9 9 92 129 134 161 77 56 140
56 193 0 19 -20 25 -22 61 -13 46 12 57 38 39 93 -15 44 -6 86 25 115 19 18
27 20 44 11 11 -7 28 -26 37 -43 13 -25 14 -38 5 -74 -15 -57 -14 -70 5 -88
24 -25 77 -20 104 9 51 55 130 40 214 -41 47 -45 109 -124 102 -131 -2 -3 -23
5 -47 16 -23 12 -48 21 -55 21 -6 0 -14 7 -18 15 -3 8 -16 15 -30 15 -14 0
-28 5 -31 10 -4 6 -11 8 -16 4 -5 -3 -16 0 -24 6 -8 6 -19 9 -24 6 -5 -4 -12
-2 -16 4 -3 5 -17 10 -31 10 -19 0 -24 -5 -24 -24 0 -13 6 -29 14 -35 14 -12
27 -61 32 -114 1 -16 7 -34 12 -39 8 -8 10 2 7 33 -6 66 -16 101 -36 128 -24
30 -15 45 15 26 12 -8 26 -12 29 -9 4 4 13 2 21 -5 8 -6 18 -11 22 -9 5 1 19
-3 30 -10 12 -6 24 -9 26 -6 3 2 11 -2 18 -11 7 -8 18 -15 24 -15 7 0 32 -9
55 -21 48 -23 74 -20 64 8 -25 70 -137 181 -208 209 -42 16 -48 16 -90 0 -25
-10 -51 -26 -58 -36 -11 -15 -20 -18 -43 -11 -33 8 -40 31 -26 83 5 18 5 46 1
62 -9 31 -56 86 -74 86 -6 0 -27 -16 -46 -36z"/>
</g>
</svg>
